<svg width="263" height="55" viewBox="0 0 263 55" fill="none" xmlns="http://www.w3.org/2000/svg">
<path d="M43 24.9999V3.9999H48.55V11.7999H56.65V3.9999H62.2V24.9999H56.65V16.8999H48.55V24.9999H43Z" fill="white"/>
<path d="M65.4859 5.1999C65.4859 4.4799 65.7559 3.8799 66.2959 3.3999C66.8359 2.8999 67.5159 2.6499 68.3359 2.6499C69.1559 2.6499 69.8359 2.8999 70.3759 3.3999C70.9159 3.8799 71.1859 4.4799 71.1859 5.1999C71.1859 5.8999 70.9159 6.4999 70.3759 6.9999C69.8359 7.4999 69.1559 7.7499 68.3359 7.7499C67.5159 7.7499 66.8359 7.4999 66.2959 6.9999C65.7559 6.4999 65.4859 5.8999 65.4859 5.1999ZM65.7859 24.9999V9.3999H70.8859V24.9999H65.7859Z" fill="white"/>
<path d="M75.4541 22.6299C74.1141 21.1499 73.4441 19.2399 73.4441 16.8999C73.4441 14.5599 74.1141 12.6499 75.4541 11.1699C76.7941 9.6899 78.4241 8.9499 80.3441 8.9499C81.7241 8.9499 82.9141 9.3499 83.9141 10.1499C84.3741 10.5099 84.7341 10.9099 84.9941 11.3499H85.2941V9.3999H90.3941V30.6999H75.5441V26.6499H85.2941V22.5999H84.9941C84.7141 23.0399 84.3541 23.4199 83.9141 23.7399C82.9341 24.4799 81.7441 24.8499 80.3441 24.8499C78.4241 24.8499 76.7941 24.1099 75.4541 22.6299ZM79.5941 14.2599C78.9941 14.8999 78.6941 15.7799 78.6941 16.8999C78.6941 18.0199 78.9941 18.8999 79.5941 19.5399C80.1941 20.1799 80.9941 20.4999 81.9941 20.4999C82.9941 20.4999 83.7941 20.1799 84.3941 19.5399C84.9941 18.8999 85.2941 18.0199 85.2941 16.8999C85.2941 15.7799 84.9941 14.8999 84.3941 14.2599C83.7941 13.6199 82.9941 13.2999 81.9941 13.2999C80.9941 13.2999 80.1941 13.6199 79.5941 14.2599Z" fill="white"/>
<path d="M93.3801 24.9999V3.9999H98.4801V11.4999H98.7801C99.0601 11.0199 99.4201 10.5999 99.8601 10.2399C100.88 9.3799 102.07 8.9499 103.43 8.9499C105.27 8.9499 106.7 9.5099 107.72 10.6299C108.76 11.7299 109.28 13.3199 109.28 15.3999V24.9999H104.18V16.1499C104.18 15.2499 103.94 14.5499 103.46 14.0499C102.98 13.5499 102.32 13.2999 101.48 13.2999C100.62 13.2999 99.9001 13.6199 99.3201 14.2599C98.7601 14.8799 98.4801 15.7099 98.4801 16.7499V24.9999H93.3801Z" fill="white"/>
<path d="M120.538 30.6999V9.3999H125.638V11.4999H125.938C126.218 11.0399 126.598 10.6199 127.078 10.2399C128.178 9.3799 129.348 8.9499 130.588 8.9499C132.508 8.9499 134.138 9.7099 135.478 11.2299C136.818 12.7299 137.488 14.7199 137.488 17.1999C137.488 19.6799 136.818 21.6799 135.478 23.1999C134.138 24.6999 132.508 25.4499 130.588 25.4499C129.328 25.4499 128.158 25.0299 127.078 24.1899C126.598 23.8099 126.218 23.3799 125.938 22.8999H125.638V30.6999H120.538ZM126.538 14.3199C125.938 14.9999 125.638 15.9599 125.638 17.1999C125.638 18.4399 125.938 19.3999 126.538 20.0799C127.138 20.7599 127.938 21.0999 128.938 21.0999C129.938 21.0999 130.738 20.7599 131.338 20.0799C131.938 19.3999 132.238 18.4399 132.238 17.1999C132.238 15.9599 131.938 14.9999 131.338 14.3199C130.738 13.6399 129.938 13.2999 128.938 13.2999C127.938 13.2999 127.138 13.6399 126.538 14.3199Z" fill="white"/>
<path d="M141.284 23.1999C139.944 21.6799 139.274 19.6799 139.274 17.1999C139.274 14.7199 139.944 12.7299 141.284 11.2299C142.624 9.7099 144.254 8.9499 146.174 8.9499C147.414 8.9499 148.584 9.3799 149.684 10.2399C150.144 10.6199 150.524 11.0399 150.824 11.4999H151.124V9.3999H156.224V24.9999H151.124V22.8999H150.824C150.544 23.3799 150.164 23.8099 149.684 24.1899C148.604 25.0299 147.434 25.4499 146.174 25.4499C144.254 25.4499 142.624 24.6999 141.284 23.1999ZM145.424 14.3199C144.824 14.9999 144.524 15.9599 144.524 17.1999C144.524 18.4399 144.824 19.3999 145.424 20.0799C146.024 20.7599 146.824 21.0999 147.824 21.0999C148.824 21.0999 149.624 20.7599 150.224 20.0799C150.824 19.3999 151.124 18.4399 151.124 17.1999C151.124 15.9599 150.824 14.9999 150.224 14.3199C149.624 13.6399 148.824 13.2999 147.824 13.2999C146.824 13.2999 146.024 13.6399 145.424 14.3199Z" fill="white"/>
<path d="M158.31 19.8999H163.41C163.49 20.1999 163.66 20.4799 163.92 20.7399C164.46 21.2799 165.24 21.5499 166.26 21.5499C167.66 21.5499 168.36 21.1999 168.36 20.4999C168.36 20.1799 168.16 19.9299 167.76 19.7499C167.36 19.5499 166.76 19.3499 165.96 19.1499C165.3 18.9899 164.87 18.8899 164.67 18.8499C164.47 18.8099 164.05 18.6999 163.41 18.5199C162.77 18.3199 162.31 18.1499 162.03 18.0099C161.77 17.8499 161.4 17.6299 160.92 17.3499C160.46 17.0499 160.12 16.7499 159.9 16.4499C159.7 16.1299 159.51 15.7399 159.33 15.2799C159.15 14.7999 159.06 14.2899 159.06 13.7499C159.06 12.4299 159.65 11.2999 160.83 10.3599C162.01 9.4199 163.67 8.9499 165.81 8.9499C168.49 8.9499 170.61 9.8299 172.17 11.5899C172.79 12.3499 173.22 13.2199 173.46 14.1999H168.51C168.39 13.8799 168.25 13.6299 168.09 13.4499C167.63 12.9499 166.97 12.6999 166.11 12.6999C164.91 12.6999 164.31 13.0499 164.31 13.7499C164.31 14.0899 164.51 14.3499 164.91 14.5299C165.31 14.7099 165.92 14.8799 166.74 15.0399C168.8 15.5199 170.19 15.9399 170.91 16.2999C172.71 17.1799 173.61 18.5299 173.61 20.3499C173.61 21.7899 172.97 22.9999 171.69 23.9799C170.43 24.9599 168.62 25.4499 166.26 25.4499C163.36 25.4499 161.15 24.5299 159.63 22.6899C158.95 21.8699 158.51 20.9399 158.31 19.8999Z" fill="white"/>
<path d="M174.951 19.8999H180.051C180.131 20.1999 180.301 20.4799 180.561 20.7399C181.101 21.2799 181.881 21.5499 182.901 21.5499C184.301 21.5499 185.001 21.1999 185.001 20.4999C185.001 20.1799 184.801 19.9299 184.401 19.7499C184.001 19.5499 183.401 19.3499 182.601 19.1499C181.941 18.9899 181.511 18.8899 181.311 18.8499C181.111 18.8099 180.691 18.6999 180.051 18.5199C179.411 18.3199 178.951 18.1499 178.671 18.0099C178.411 17.8499 178.041 17.6299 177.561 17.3499C177.101 17.0499 176.761 16.7499 176.541 16.4499C176.341 16.1299 176.151 15.7399 175.971 15.2799C175.791 14.7999 175.701 14.2899 175.701 13.7499C175.701 12.4299 176.291 11.2999 177.471 10.3599C178.651 9.4199 180.311 8.9499 182.451 8.9499C185.131 8.9499 187.251 9.8299 188.811 11.5899C189.431 12.3499 189.861 13.2199 190.101 14.1999H185.151C185.031 13.8799 184.891 13.6299 184.731 13.4499C184.271 12.9499 183.611 12.6999 182.751 12.6999C181.551 12.6999 180.951 13.0499 180.951 13.7499C180.951 14.0899 181.151 14.3499 181.551 14.5299C181.951 14.7099 182.561 14.8799 183.381 15.0399C185.441 15.5199 186.831 15.9399 187.551 16.2999C189.351 17.1799 190.251 18.5299 190.251 20.3499C190.251 21.7899 189.611 22.9999 188.331 23.9799C187.071 24.9599 185.261 25.4499 182.901 25.4499C180.001 25.4499 177.791 24.5299 176.271 22.6899C175.591 21.8699 175.151 20.9399 174.951 19.8999Z" fill="white"/>
<path fill-rule="evenodd" clip-rule="evenodd" d="M6 6V24H24L6 6ZM0 0V30H30V0H0Z" fill="#FF6E30"/>
<path d="M1.932 48.124C1.01733 47.284 0.56 46.2527 0.56 45.03C0.56 43.8073 1.01733 42.7807 1.932 41.95C2.84667 41.11 4.046 40.69 5.53 40.69V39.57H6.79V40.69C8.274 40.69 9.47333 41.11 10.388 41.95C11.3027 42.7807 11.76 43.8073 11.76 45.03C11.76 46.2527 11.3027 47.284 10.388 48.124C9.47333 48.9547 8.274 49.37 6.79 49.37V50.49H5.53V49.37C4.046 49.37 2.84667 48.9547 1.932 48.124ZM6.79 41.81V48.25C7.91933 48.25 8.82 47.9467 9.492 47.34C10.164 46.7333 10.5 45.9633 10.5 45.03C10.5 44.0967 10.164 43.3267 9.492 42.72C8.82 42.1133 7.91933 41.81 6.79 41.81ZM2.828 42.72C2.156 43.3267 1.82 44.0967 1.82 45.03C1.82 45.9633 2.156 46.7333 2.828 47.34C3.5 47.9467 4.40067 48.25 5.53 48.25V41.81C4.40067 41.81 3.5 42.1133 2.828 42.72ZM13.9144 49.104C13.2237 48.4133 12.8784 47.5453 12.8784 46.5C12.8784 45.4547 13.2237 44.5867 13.9144 43.896C14.605 43.2053 15.473 42.86 16.5184 42.86C17.5637 42.86 18.4317 43.2053 19.1224 43.896C19.813 44.5867 20.1584 45.4547 20.1584 46.5C20.1584 47.5453 19.813 48.4133 19.1224 49.104C18.4317 49.7947 17.5637 50.14 16.5184 50.14C15.473 50.14 14.605 49.7947 13.9144 49.104ZM14.7124 44.638C14.2364 45.1233 13.9984 45.744 13.9984 46.5C13.9984 47.256 14.2364 47.8767 14.7124 48.362C15.1884 48.8473 15.7904 49.09 16.5184 49.09C17.2464 49.09 17.8484 48.8473 18.3244 48.362C18.8004 47.8767 19.0384 47.256 19.0384 46.5C19.0384 45.744 18.8004 45.1233 18.3244 44.638C17.8484 44.1527 17.2464 43.91 16.5184 43.91C15.7904 43.91 15.1884 44.1527 14.7124 44.638ZM20.7829 44.05V43H26.8029V44.05H24.3529V50H23.2329V44.05H20.7829ZM28.4749 49.104C27.7842 48.4133 27.4389 47.5453 27.4389 46.5C27.4389 45.4547 27.7842 44.5867 28.4749 43.896C29.1656 43.2053 30.0336 42.86 31.0789 42.86C32.1242 42.86 32.9922 43.2053 33.6829 43.896C34.3736 44.5867 34.7189 45.4547 34.7189 46.5C34.7189 47.5453 34.3736 48.4133 33.6829 49.104C32.9922 49.7947 32.1242 50.14 31.0789 50.14C30.0336 50.14 29.1656 49.7947 28.4749 49.104ZM29.2729 44.638C28.7969 45.1233 28.5589 45.744 28.5589 46.5C28.5589 47.256 28.7969 47.8767 29.2729 48.362C29.7489 48.8473 30.3509 49.09 31.0789 49.09C31.8069 49.09 32.4089 48.8473 32.8849 48.362C33.3609 47.8767 33.5989 47.256 33.5989 46.5C33.5989 45.744 33.3609 45.1233 32.8849 44.638C32.4089 44.1527 31.8069 43.91 31.0789 43.91C30.3509 43.91 29.7489 44.1527 29.2729 44.638ZM36.8414 49.104C36.1694 48.4133 35.8334 47.5453 35.8334 46.5C35.8334 45.4547 36.1694 44.5867 36.8414 43.896C37.5134 43.2053 38.3441 42.86 39.3334 42.86C40.4814 42.86 41.3914 43.2707 42.0634 44.092C42.3528 44.456 42.5628 44.862 42.6934 45.31H41.5734C41.4708 45.058 41.3168 44.8247 41.1114 44.61C40.6634 44.1433 40.0708 43.91 39.3334 43.91C38.6521 43.91 38.0828 44.1527 37.6254 44.638C37.1774 45.1233 36.9534 45.744 36.9534 46.5C36.9534 47.256 37.1868 47.8767 37.6534 48.362C38.1201 48.8473 38.6801 49.09 39.3334 49.09C40.0988 49.09 40.7101 48.8333 41.1674 48.32C41.3728 48.1053 41.5314 47.8487 41.6434 47.55H42.7634C42.6421 48.026 42.4274 48.46 42.1194 48.852C41.4101 49.7107 40.4814 50.14 39.3334 50.14C38.3441 50.14 37.5134 49.7947 36.8414 49.104ZM43.2595 44.05V43H49.2795V44.05H46.8295V50H45.7095V44.05H43.2595ZM49.6355 43H50.8255L52.3655 48.95H53.4155L55.2355 43H56.4255L53.4855 52.66H52.2955L53.1355 50H51.5255L49.6355 43ZM56.2204 51.61V48.95H56.9904L58.6004 43H61.5404L63.1504 48.95H63.9204V51.61H62.8004V50H57.3404V51.61H56.2204ZM58.1104 48.95H62.0304L60.7004 44.05H59.4404L58.1104 48.95ZM64.9644 50V43H66.0844V48.25L66.0704 48.39H66.0984L69.8644 43H71.1244V50H70.0044V44.75L70.0184 44.61H69.9904L66.2244 50H64.9644ZM72.8055 50L74.2055 47.48C73.9721 47.3773 73.7388 47.228 73.5055 47.032C73.0388 46.6027 72.8055 46.052 72.8055 45.38C72.8055 44.6987 73.0528 44.134 73.5475 43.686C74.0421 43.2287 74.7001 43 75.5215 43H78.6855V50H77.5655V47.76H75.3255L74.0935 50H72.8055ZM74.3315 44.414C74.0608 44.6567 73.9255 44.9787 73.9255 45.38C73.9255 45.7813 74.0608 46.1033 74.3315 46.346C74.6115 46.5887 75.0128 46.71 75.5355 46.71H77.5655V44.05H75.5355C75.0128 44.05 74.6115 44.1713 74.3315 44.414ZM84.7098 50V40.2H85.9698V44.47H91.2198V40.2H92.4798V50H91.2198V45.66H85.9698V50H84.7098ZM94.5917 41.446C94.4423 41.2967 94.3677 41.1147 94.3677 40.9C94.3677 40.6853 94.4423 40.5033 94.5917 40.354C94.741 40.2047 94.923 40.13 95.1377 40.13C95.3523 40.13 95.5343 40.2047 95.6837 40.354C95.833 40.5033 95.9077 40.6853 95.9077 40.9C95.9077 41.1147 95.833 41.2967 95.6837 41.446C95.5343 41.5953 95.3523 41.67 95.1377 41.67C94.923 41.67 94.741 41.5953 94.5917 41.446ZM94.5777 50V43H95.6977V50H94.5777ZM98.2138 49.104C97.5605 48.404 97.2338 47.536 97.2338 46.5C97.2338 45.464 97.5605 44.6007 98.2138 43.91C98.8672 43.21 99.6605 42.86 100.594 42.86C101.182 42.86 101.681 42.972 102.092 43.196C102.502 43.42 102.796 43.658 102.974 43.91L103.1 44.12H103.114V43H104.234V52.66H98.2138V51.61H103.114V48.88H103.1L102.974 49.076C102.806 49.328 102.516 49.5707 102.106 49.804C101.695 50.028 101.191 50.14 100.594 50.14C99.6605 50.14 98.8672 49.7947 98.2138 49.104ZM99.0258 44.638C98.5778 45.1233 98.3538 45.744 98.3538 46.5C98.3538 47.256 98.5778 47.8767 99.0258 48.362C99.4832 48.8473 100.052 49.09 100.734 49.09C101.415 49.09 101.98 48.8473 102.428 48.362C102.885 47.8767 103.114 47.256 103.114 46.5C103.114 45.744 102.885 45.1233 102.428 44.638C101.98 44.1527 101.415 43.91 100.734 43.91C100.052 43.91 99.4832 44.1527 99.0258 44.638ZM106.199 50V40.2H107.319V44.05H107.333C107.473 43.826 107.655 43.63 107.879 43.462C108.392 43.0607 108.999 42.86 109.699 42.86C110.548 42.86 111.225 43.1307 111.729 43.672C112.242 44.204 112.499 44.9367 112.499 45.87V50H111.379V45.94C111.379 45.268 111.211 44.764 110.875 44.428C110.539 44.0827 110.077 43.91 109.489 43.91C108.845 43.91 108.322 44.1247 107.921 44.554C107.519 44.974 107.319 45.5293 107.319 46.22V50H106.199ZM118.244 52.66V43H119.364V44.12H119.378L119.518 43.91C119.676 43.6673 119.961 43.434 120.372 43.21C120.782 42.9767 121.286 42.86 121.884 42.86C122.817 42.86 123.61 43.21 124.264 43.91C124.917 44.6007 125.244 45.464 125.244 46.5C125.244 47.536 124.917 48.404 124.264 49.104C123.61 49.7947 122.817 50.14 121.884 50.14C121.286 50.14 120.778 50.028 120.358 49.804C119.947 49.5707 119.667 49.328 119.518 49.076L119.378 48.88H119.364V52.66H118.244ZM120.036 44.638C119.588 45.1233 119.364 45.744 119.364 46.5C119.364 47.256 119.588 47.8767 120.036 48.362C120.493 48.8473 121.062 49.09 121.744 49.09C122.425 49.09 122.99 48.8473 123.438 48.362C123.895 47.8767 124.124 47.256 124.124 46.5C124.124 45.744 123.895 45.1233 123.438 44.638C122.99 44.1527 122.425 43.91 121.744 43.91C121.062 43.91 120.493 44.1527 120.036 44.638ZM127.349 49.104C126.695 48.404 126.369 47.536 126.369 46.5C126.369 45.464 126.695 44.6007 127.349 43.91C128.002 43.21 128.795 42.86 129.729 42.86C130.317 42.86 130.811 42.972 131.213 43.196C131.623 43.42 131.922 43.6627 132.109 43.924L132.235 44.134H132.249V43H133.369V50H132.249V48.88H132.235L132.109 49.076C131.941 49.328 131.651 49.5707 131.241 49.804C130.83 50.028 130.326 50.14 129.729 50.14C128.795 50.14 128.002 49.7947 127.349 49.104ZM128.161 44.638C127.713 45.1233 127.489 45.744 127.489 46.5C127.489 47.256 127.713 47.8767 128.161 48.362C128.618 48.8473 129.187 49.09 129.869 49.09C130.55 49.09 131.115 48.8473 131.563 48.362C132.02 47.8767 132.249 47.256 132.249 46.5C132.249 45.744 132.02 45.1233 131.563 44.638C131.115 44.1527 130.55 43.91 129.869 43.91C129.187 43.91 128.618 44.1527 128.161 44.638ZM134.844 47.83H136.034C136.136 48.082 136.272 48.292 136.44 48.46C136.86 48.88 137.401 49.09 138.064 49.09C138.661 49.09 139.1 48.992 139.38 48.796C139.669 48.6 139.814 48.348 139.814 48.04C139.814 47.872 139.753 47.7273 139.632 47.606C139.52 47.4847 139.333 47.3773 139.072 47.284C138.81 47.1907 138.577 47.1207 138.372 47.074C138.176 47.018 137.886 46.9527 137.504 46.878C135.964 46.5607 135.194 45.8747 135.194 44.82C135.194 44.2693 135.427 43.8073 135.894 43.434C136.36 43.0513 137.014 42.86 137.854 42.86C138.899 42.86 139.725 43.21 140.332 43.91C140.574 44.2273 140.752 44.5773 140.864 44.96H139.674C139.59 44.7733 139.468 44.6007 139.31 44.442C138.955 44.0873 138.47 43.91 137.854 43.91C137.359 43.91 136.976 44.0033 136.706 44.19C136.444 44.3767 136.314 44.5867 136.314 44.82C136.314 44.988 136.37 45.1327 136.482 45.254C136.603 45.3753 136.794 45.4827 137.056 45.576C137.317 45.6693 137.546 45.744 137.742 45.8C137.947 45.8467 138.241 45.9073 138.624 45.982C140.164 46.2993 140.934 46.9853 140.934 48.04C140.934 48.6373 140.682 49.1367 140.178 49.538C139.674 49.9393 138.969 50.14 138.064 50.14C136.925 50.14 136.048 49.7573 135.432 48.992C135.17 48.656 134.974 48.2687 134.844 47.83ZM141.98 47.83H143.17C143.273 48.082 143.408 48.292 143.576 48.46C143.996 48.88 144.538 49.09 145.2 49.09C145.798 49.09 146.236 48.992 146.516 48.796C146.806 48.6 146.95 48.348 146.95 48.04C146.95 47.872 146.89 47.7273 146.768 47.606C146.656 47.4847 146.47 47.3773 146.208 47.284C145.947 47.1907 145.714 47.1207 145.508 47.074C145.312 47.018 145.023 46.9527 144.64 46.878C143.1 46.5607 142.33 45.8747 142.33 44.82C142.33 44.2693 142.564 43.8073 143.03 43.434C143.497 43.0513 144.15 42.86 144.99 42.86C146.036 42.86 146.862 43.21 147.468 43.91C147.711 44.2273 147.888 44.5773 148 44.96H146.81C146.726 44.7733 146.605 44.6007 146.446 44.442C146.092 44.0873 145.606 43.91 144.99 43.91C144.496 43.91 144.113 44.0033 143.842 44.19C143.581 44.3767 143.45 44.5867 143.45 44.82C143.45 44.988 143.506 45.1327 143.618 45.254C143.74 45.3753 143.931 45.4827 144.192 45.576C144.454 45.6693 144.682 45.744 144.878 45.8C145.084 45.8467 145.378 45.9073 145.76 45.982C147.3 46.2993 148.07 46.9853 148.07 48.04C148.07 48.6373 147.818 49.1367 147.314 49.538C146.81 49.9393 146.106 50.14 145.2 50.14C144.062 50.14 143.184 49.7573 142.568 48.992C142.307 48.656 142.111 48.2687 141.98 47.83ZM150.181 46.15C149.472 45.4407 149.117 44.5773 149.117 43.56C149.117 42.5427 149.472 41.684 150.181 40.984C150.9 40.2747 151.782 39.92 152.827 39.92C153.872 39.92 154.75 40.2747 155.459 40.984C156.178 41.684 156.537 42.5427 156.537 43.56C156.537 44.5773 156.178 45.4407 155.459 46.15C154.75 46.85 153.872 47.2 152.827 47.2C151.782 47.2 150.9 46.85 150.181 46.15ZM150.825 41.558C150.293 42.09 150.027 42.7573 150.027 43.56C150.027 44.3627 150.293 45.03 150.825 45.562C151.357 46.094 152.024 46.36 152.827 46.36C153.63 46.36 154.297 46.094 154.829 45.562C155.361 45.03 155.627 44.3627 155.627 43.56C155.627 42.7573 155.361 42.09 154.829 41.558C154.297 41.026 153.63 40.76 152.827 40.76C152.024 40.76 151.357 41.026 150.825 41.558ZM151.427 45.17V41.74H153.037C154.017 41.74 154.507 42.16 154.507 43C154.507 43.308 154.39 43.5787 154.157 43.812C154.054 43.9147 153.938 43.994 153.807 44.05L154.577 45.17H153.597L152.897 44.19H152.337V45.17H151.427ZM152.337 43.42H153.037C153.42 43.42 153.611 43.28 153.611 43C153.611 42.72 153.42 42.58 153.037 42.58H152.337V43.42ZM161.365 50V48.81L164.585 46.43C165.472 45.7673 166.102 45.198 166.475 44.722C166.849 44.246 167.035 43.6953 167.035 43.07C167.035 42.5007 166.839 42.034 166.447 41.67C166.065 41.2967 165.561 41.11 164.935 41.11C164.133 41.11 163.535 41.4367 163.143 42.09C162.957 42.3887 162.831 42.7153 162.765 43.07H161.435C161.519 42.4913 161.701 41.9687 161.981 41.502C162.644 40.4473 163.629 39.92 164.935 39.92C165.906 39.92 166.709 40.2233 167.343 40.83C167.978 41.4367 168.295 42.1833 168.295 43.07C168.295 43.9193 168.053 44.666 167.567 45.31C167.091 45.9447 166.377 46.598 165.425 47.27L163.395 48.712L163.255 48.796V48.824L163.381 48.81H168.295V50H161.365ZM170.988 48.838C170.129 47.8767 169.7 46.6307 169.7 45.1C169.7 43.5693 170.129 42.3233 170.988 41.362C171.846 40.4007 172.887 39.92 174.11 39.92C175.332 39.92 176.373 40.4007 177.232 41.362C178.09 42.3233 178.52 43.5693 178.52 45.1C178.52 46.6307 178.09 47.8767 177.232 48.838C176.373 49.7993 175.332 50.28 174.11 50.28C172.887 50.28 171.846 49.7993 170.988 48.838ZM171.842 42.174C171.254 42.874 170.96 43.8493 170.96 45.1C170.96 46.3507 171.254 47.3307 171.842 48.04C172.439 48.74 173.195 49.09 174.11 49.09C175.024 49.09 175.776 48.74 176.364 48.04C176.961 47.3307 177.26 46.3507 177.26 45.1C177.26 43.8493 176.961 42.874 176.364 42.174C175.776 41.4647 175.024 41.11 174.11 41.11C173.195 41.11 172.439 41.4647 171.842 42.174ZM179.643 43.07V41.67L181.533 40.2H182.653V50H181.393V41.74L179.643 43.07ZM184.407 47.34C184.407 46.4813 184.743 45.8 185.415 45.296C185.723 45.072 186.064 44.9133 186.437 44.82V44.75C186.139 44.6473 185.868 44.498 185.625 44.302C185.093 43.8633 184.827 43.2893 184.827 42.58C184.827 41.8427 185.135 41.2173 185.751 40.704C186.377 40.1813 187.212 39.92 188.257 39.92C189.303 39.92 190.133 40.1813 190.749 40.704C191.375 41.2173 191.687 41.8427 191.687 42.58C191.687 43.28 191.417 43.854 190.875 44.302C190.623 44.5073 190.357 44.6567 190.077 44.75V44.82C190.432 44.9133 190.768 45.072 191.085 45.296C191.767 45.8093 192.107 46.4907 192.107 47.34C192.107 48.1427 191.757 48.8333 191.057 49.412C190.367 49.9907 189.433 50.28 188.257 50.28C187.081 50.28 186.143 49.9907 185.443 49.412C184.753 48.8333 184.407 48.1427 184.407 47.34ZM186.087 42.72C186.087 43.1307 186.283 43.49 186.675 43.798C187.067 44.106 187.595 44.26 188.257 44.26C188.92 44.26 189.447 44.106 189.839 43.798C190.231 43.49 190.427 43.1307 190.427 42.72C190.427 42.244 190.241 41.8567 189.867 41.558C189.503 41.2593 188.967 41.11 188.257 41.11C187.548 41.11 187.007 41.2593 186.633 41.558C186.269 41.8567 186.087 42.244 186.087 42.72ZM186.339 45.982C185.891 46.3273 185.667 46.7567 185.667 47.27C185.667 47.7833 185.891 48.2173 186.339 48.572C186.787 48.9173 187.427 49.09 188.257 49.09C189.088 49.09 189.727 48.9173 190.175 48.572C190.623 48.2173 190.847 47.7833 190.847 47.27C190.847 46.7567 190.623 46.3273 190.175 45.982C189.727 45.6273 189.088 45.45 188.257 45.45C187.427 45.45 186.787 45.6273 186.339 45.982ZM193.572 46.78V45.73H201.412V46.78H193.572ZM202.668 50V48.81L205.888 46.43C206.775 45.7673 207.405 45.198 207.778 44.722C208.151 44.246 208.338 43.6953 208.338 43.07C208.338 42.5007 208.142 42.034 207.75 41.67C207.367 41.2967 206.863 41.11 206.238 41.11C205.435 41.11 204.838 41.4367 204.446 42.09C204.259 42.3887 204.133 42.7153 204.068 43.07H202.738C202.822 42.4913 203.004 41.9687 203.284 41.502C203.947 40.4473 204.931 39.92 206.238 39.92C207.209 39.92 208.011 40.2233 208.646 40.83C209.281 41.4367 209.598 42.1833 209.598 43.07C209.598 43.9193 209.355 44.666 208.87 45.31C208.394 45.9447 207.68 46.598 206.728 47.27L204.698 48.712L204.558 48.796V48.824L204.684 48.81H209.598V50H202.668ZM212.29 48.838C211.432 47.8767 211.002 46.6307 211.002 45.1C211.002 43.5693 211.432 42.3233 212.29 41.362C213.149 40.4007 214.19 39.92 215.412 39.92C216.635 39.92 217.676 40.4007 218.534 41.362C219.393 42.3233 219.822 43.5693 219.822 45.1C219.822 46.6307 219.393 47.8767 218.534 48.838C217.676 49.7993 216.635 50.28 215.412 50.28C214.19 50.28 213.149 49.7993 212.29 48.838ZM213.144 42.174C212.556 42.874 212.262 43.8493 212.262 45.1C212.262 46.3507 212.556 47.3307 213.144 48.04C213.742 48.74 214.498 49.09 215.412 49.09C216.327 49.09 217.078 48.74 217.666 48.04C218.264 47.3307 218.562 46.3507 218.562 45.1C218.562 43.8493 218.264 42.874 217.666 42.174C217.078 41.4647 216.327 41.11 215.412 41.11C214.498 41.11 213.742 41.4647 213.144 42.174ZM221.016 50V48.81L224.236 46.43C225.122 45.7673 225.752 45.198 226.126 44.722C226.499 44.246 226.686 43.6953 226.686 43.07C226.686 42.5007 226.49 42.034 226.098 41.67C225.715 41.2967 225.211 41.11 224.586 41.11C223.783 41.11 223.186 41.4367 222.794 42.09C222.607 42.3887 222.481 42.7153 222.416 43.07H221.086C221.17 42.4913 221.352 41.9687 221.632 41.502C222.294 40.4473 223.279 39.92 224.586 39.92C225.556 39.92 226.359 40.2233 226.994 40.83C227.628 41.4367 227.946 42.1833 227.946 43.07C227.946 43.9193 227.703 44.666 227.218 45.31C226.742 45.9447 226.028 46.598 225.076 47.27L223.046 48.712L222.906 48.796V48.824L223.032 48.81H227.946V50H221.016ZM230.638 48.838C229.779 47.8767 229.35 46.6307 229.35 45.1C229.35 43.5693 229.779 42.3233 230.638 41.362C231.497 40.4007 232.537 39.92 233.76 39.92C234.983 39.92 236.023 40.4007 236.882 41.362C237.741 42.3233 238.17 43.5693 238.17 45.1C238.17 46.6307 237.741 47.8767 236.882 48.838C236.023 49.7993 234.983 50.28 233.76 50.28C232.537 50.28 231.497 49.7993 230.638 48.838ZM231.492 42.174C230.904 42.874 230.61 43.8493 230.61 45.1C230.61 46.3507 230.904 47.3307 231.492 48.04C232.089 48.74 232.845 49.09 233.76 49.09C234.675 49.09 235.426 48.74 236.014 48.04C236.611 47.3307 236.91 46.3507 236.91 45.1C236.91 43.8493 236.611 42.874 236.014 42.174C235.426 41.4647 234.675 41.11 233.76 41.11C232.845 41.11 232.089 41.4647 231.492 42.174Z" fill="#E9E9E9"/>
</svg>
